<?xml version="1.0" encoding="UTF-8"?>
<!DOCTYPE svg PUBLIC "-//W3C//DTD SVG 1.1//EN" "http://www.w3.org/Graphics/SVG/1.1/DTD/svg11.dtd">
<svg xmlns="http://www.w3.org/2000/svg" xml:space="preserve" width="52.4302mm" height="33mm" version="1.1" style="shape-rendering:geometricPrecision; text-rendering:geometricPrecision; image-rendering:optimizeQuality; fill-rule:evenodd; clip-rule:evenodd" viewBox="0 0 3909.74 2460.83" xmlns:xlink="http://www.w3.org/1999/xlink" xmlns:xodm="http://www.corel.com/coreldraw/odm/2003">
 <defs>
  <linearGradient id="id0" gradientUnits="userSpaceOnUse" x1="1147.77" y1="2458.82" x2="1286.91" y2="2.01">
   <stop offset="0" style="stop-opacity:1; stop-color:#36C1D3"/>
   <stop offset="0.219608" style="stop-opacity:1; stop-color:#6EC0D5"/>
   <stop offset="0.439216" style="stop-opacity:1; stop-color:#40C2D2"/>
   <stop offset="0.6" style="stop-opacity:1; stop-color:#90D3CE"/>
   <stop offset="0.819608" style="stop-opacity:1; stop-color:#65BD60"/>
   <stop offset="1" style="stop-opacity:1; stop-color:#84C44C"/>
  </linearGradient>
 </defs>
 <g id="Layer_x0020_1">
  <path fill="url(#id0)" d="M1865.15 556.39l204.17 0 0 205.97 -204.17 0 0 -205.97zm-806.68 -302.15l487.58 0 0 295.87c-149.25,-90.89 -313.81,-135.04 -487.58,-135.76l0 -160.12zm487.58 481.59l0 44.34 -487.58 0 0 -176.52c88.62,-4.82 177.6,1.63 262.74,19.34 74.47,15.5 152.2,59.17 224.84,112.84zm135.47 -537.88l292.83 0 0 302.26 -292.83 0 0 -302.26zm-1492.4 725.41c0,0 8.19,-150.22 26.57,-231.2 33.1,-145.76 65.94,-352.92 276.4,-344.72 143.78,5.61 275.28,35.94 275.28,35.94 -82.45,-100.88 -299.66,-146.14 -434.26,-112.27 -77.67,19.54 -152.07,59.9 -197.91,177.64 -111.69,286.78 -71.15,469.03 -89.16,595.45 -5.24,36.81 -55.06,207.9 -44.6,380.26 10.46,172.35 -2.86,244.28 94.68,460.76 97.54,216.49 257.19,339.65 373,416.53 115.82,76.89 255.56,135.46 376.74,149.37 57.13,6.54 102.44,13.95 194.55,6.71 211.47,-16.65 349.01,-72.13 320.01,-86.24 -29,-14.1 -114.47,6.64 -274.58,7.55 -125.82,0.72 -173.17,-18.16 -214.77,-29.66 -91.3,-25.24 -293.6,-136.51 -353.34,-189.89 -59.74,-53.37 -211.87,-215.08 -251.4,-331.45 -76.19,-224.26 -43.47,-280.8 -59.19,-493.59 0,0 26.76,71.89 118.96,220.92 137.72,222.65 465.45,593.83 727.26,688.3 85.64,30.91 202.13,55.64 297.35,34.92 86.52,-18.82 126.96,-33.33 191.83,-98.54 33.12,-33.28 36.41,-87.65 39.39,-136.27 33.85,-552.41 -8.79,178.31 -355.68,102.36 -312.94,-68.52 -1023.53,-810.65 -943.91,-1045.55 142.75,-421.11 631.63,-590.68 1044.55,-504.81 304.13,63.25 625.03,518.75 629.72,518.12 16.7,-2.24 -282.44,-878.98 -1205.77,-629.8 -214.4,57.85 -418.78,228.36 -561.74,439.15zm2027.96 -380.35l147.75 0 0 157.83 -147.75 0 0 -157.83zm5.38 -310.29l212.23 0 0 203.29 -212.23 0 0 -203.29zm-163.88 -232.73l163.88 0 0 160.51 -163.88 0 0 -160.51z"/>
 </g>
</svg>